<svg xmlns="http://www.w3.org/2000/svg" viewBox="0 0 272.72 138.84"><defs><style>.cls-1{fill:#e9c4f2;}.cls-1,.cls-2,.cls-3,.cls-4{stroke:#000;}.cls-1,.cls-2,.cls-3{stroke-width:0.25px;}.cls-2{fill:#c0ecf2;}.cls-3{fill:#c2f2d8;}.cls-4{fill:none;stroke-width:0.35px;}</style></defs><g id="_Layer_2" data-name="&lt;Layer&gt;"><ellipse class="cls-1" cx="27.97" cy="60.6" rx="27.84" ry="46.37"/><path d="M23.58,11.15a1.38,1.38,0,0,0,.73-.43,15,15,0,0,0,1.05-1.66l4-6.88h.3L31,10a2,2,0,0,0,.3.94,1.27,1.27,0,0,0,.75.24v.22h-3.4v-.22a2.92,2.92,0,0,0,.8-.15.53.53,0,0,0,.28-.53v-.21c0-.08,0-.14,0-.2l-.3-1.8H26.48l-.86,1.55a2.53,2.53,0,0,0-.16.33,1.67,1.67,0,0,0-.11.52.41.41,0,0,0,.18.37,1.44,1.44,0,0,0,.63.12v.22H23.58Zm5.76-3.38-.58-3.56-2,3.56Z" transform="translate(0 -2.18)"/><path d="M25.06,64.67a.52.52,0,0,1,.31-.1l.15,0,.16.07.22.12.09,0h.09a.36.36,0,0,0,.24-.08,6.71,6.71,0,0,0,.44-.55c.15-.21.51-.71,1.06-1.51,0,0-.05-.25-.15-.68s-.18-.78-.26-1.07a2,2,0,0,0-.22-.59.4.4,0,0,0-.35-.14,2,2,0,0,0-.35.06l-.35.09-.05-.2.69-.24.51-.15a2.08,2.08,0,0,1,.39-.05.51.51,0,0,1,.4.15,2.66,2.66,0,0,1,.34,1l.13.72a10.88,10.88,0,0,1,.88-1.22,2.27,2.27,0,0,1,.54-.48.87.87,0,0,1,.82-.1.44.44,0,0,1,.24.43.47.47,0,0,1-.12.34.45.45,0,0,1-.31.11h-.13l-.13,0-.17-.07-.13,0a.18.18,0,0,0-.09,0c-.19,0-.45.24-.79.73a3.22,3.22,0,0,0-.5.85,3.87,3.87,0,0,0,.11.61c.08.35.17.72.26,1.1a4.71,4.71,0,0,0,.21.76c.1.23.21.34.33.34a.5.5,0,0,0,.35-.19c.11-.13.29-.35.53-.68l.17.11a5.7,5.7,0,0,1-.56.83,1.46,1.46,0,0,1-1,.66.55.55,0,0,1-.49-.3,2.42,2.42,0,0,1-.21-.58l-.39-1.56-1.29,1.7a4.52,4.52,0,0,1-.59.59.8.8,0,0,1-.5.15.58.58,0,0,1-.55-.25.57.57,0,0,1-.08-.32A.4.4,0,0,1,25.06,64.67Z" transform="translate(0 -2.18)"/><ellipse class="cls-2" cx="137.55" cy="60.6" rx="27.84" ry="46.37"/><path d="M133.28,11.15a1.38,1.38,0,0,0,.66-.18,1.48,1.48,0,0,0,.47-.84L136.09,4c0-.15.08-.27.1-.35a3,3,0,0,0,.07-.46.52.52,0,0,0-.23-.48,2.08,2.08,0,0,0-.84-.14V2.39h3.55a4.85,4.85,0,0,1,1.6.24,1.76,1.76,0,0,1,1.16,1.76A1.82,1.82,0,0,1,140.55,6a4.6,4.6,0,0,1-1.43.51,3.22,3.22,0,0,1,1.06.6,2,2,0,0,1,.64,1.58,2.29,2.29,0,0,1-1,1.89,4.41,4.41,0,0,1-2.74.76h-3.8Zm5.41-.93a2.51,2.51,0,0,0,.63-1.71,1.44,1.44,0,0,0-.73-1.46,5.67,5.67,0,0,0-1.9-.23l-.87,3.12a1.74,1.74,0,0,0,0,.22,1.65,1.65,0,0,0,0,.21.48.48,0,0,0,.34.49,1.88,1.88,0,0,0,.61.07A2.54,2.54,0,0,0,138.69,10.22Zm-1.27-3.84a3.73,3.73,0,0,0,1.66-.3,1.9,1.9,0,0,0,1-1.87,1.26,1.26,0,0,0-.43-1.09,1.9,1.9,0,0,0-1.14-.32,1.32,1.32,0,0,0-.6.09.42.42,0,0,0-.22.29l-.89,3.19Z" transform="translate(0 -2.18)"/><path d="M126,67.51a4.07,4.07,0,0,1,1.15-.84,1.43,1.43,0,0,1-.26-.22.44.44,0,0,1-.1-.29.9.9,0,0,1,.36-.59,5.72,5.72,0,0,1,.66-.5,2,2,0,0,1-.7-.43,1.35,1.35,0,0,1-.35-1,2,2,0,0,1,.74-1.58,2.76,2.76,0,0,1,1.84-.63,2.3,2.3,0,0,1,1,.18,1.15,1.15,0,0,1,.47.3h.85v.5H131c0,.1,0,.18,0,.26a1.38,1.38,0,0,1,0,.32,1.87,1.87,0,0,1-.79,1.6,2.79,2.79,0,0,1-1.7.59h-.18l-.2,0c-.06,0-.15.06-.26.18a.58.58,0,0,0-.17.33c0,.15.46.39,1.39.73s1.38.86,1.38,1.53a1.67,1.67,0,0,1-.7,1.33,3.22,3.22,0,0,1-2.09.57,2.57,2.57,0,0,1-1.53-.41,1.24,1.24,0,0,1-.57-1A1.4,1.4,0,0,1,126,67.51Zm3.24,1.7a1,1,0,0,0,.49-.86.87.87,0,0,0-.25-.64,2.06,2.06,0,0,0-.45-.29c-.17-.09-.46-.21-.87-.37a4.56,4.56,0,0,0-.71-.23c-.11,0-.32.14-.64.43a1.37,1.37,0,0,0-.47,1,1.15,1.15,0,0,0,.72,1.15,2.37,2.37,0,0,0,.94.16A2.11,2.11,0,0,0,129.27,69.21Zm-1.35-4.64a.77.77,0,0,0,.73.38,1.24,1.24,0,0,0,1-.72,2.93,2.93,0,0,0,.44-1.59,1,1,0,0,0-.18-.65.64.64,0,0,0-.55-.24,1.27,1.27,0,0,0-1.13.75,2.88,2.88,0,0,0-.44,1.44A1.41,1.41,0,0,0,127.92,64.57Z" transform="translate(0 -2.18)"/><path d="M138.37,66.39a.51.51,0,0,1,.3-.1.44.44,0,0,1,.16,0,.71.71,0,0,1,.16.07l.22.12.09,0h.09a.36.36,0,0,0,.24-.08,6.71,6.71,0,0,0,.44-.55l1.06-1.51s0-.26-.15-.68-.18-.78-.26-1.07a2.29,2.29,0,0,0-.22-.59.37.37,0,0,0-.35-.14,1.9,1.9,0,0,0-.35.06l-.35.09-.06-.2.7-.24.5-.15a1.61,1.61,0,0,1,.4-.05.48.48,0,0,1,.39.15,2.35,2.35,0,0,1,.34,1l.14.72a10.9,10.9,0,0,1,.88-1.23,2.67,2.67,0,0,1,.53-.47.88.88,0,0,1,.48-.16.85.85,0,0,1,.35.06.44.44,0,0,1,.24.43.45.45,0,0,1-.12.33.41.41,0,0,1-.31.12h-.13l-.13-.05-.17-.07-.13,0a.18.18,0,0,0-.09,0c-.19,0-.46.24-.79.73a3.44,3.44,0,0,0-.51.85,4.63,4.63,0,0,0,.12.61c.08.35.16.71.26,1.1a4.71,4.71,0,0,0,.21.76c.1.22.21.34.33.34a.5.5,0,0,0,.34-.19,6.59,6.59,0,0,0,.53-.68l.18.1a5.32,5.32,0,0,1-.56.84,1.49,1.49,0,0,1-1.05.66.57.57,0,0,1-.5-.3,2.1,2.1,0,0,1-.2-.58l-.39-1.56-1.3,1.69a3.73,3.73,0,0,1-.58.6.81.81,0,0,1-.51.15.58.58,0,0,1-.54-.25.57.57,0,0,1-.09-.32A.38.38,0,0,1,138.37,66.39Z" transform="translate(0 -2.18)"/><path d="M136.69,55.91a7.53,7.53,0,0,0-1.52,2.93,17.08,17.08,0,0,0-.46,4.45,17.11,17.11,0,0,0,.46,4.46,7.52,7.52,0,0,0,1.52,2.91l-.26.35a8.55,8.55,0,0,1-2.09-3.32,13.31,13.31,0,0,1,0-8.81,8.67,8.67,0,0,1,2.09-3.32Z" transform="translate(0 -2.18)"/><path d="M145.83,55.91l.25-.35a8.55,8.55,0,0,1,2.09,3.32,12.58,12.58,0,0,1,.76,4.41,12.44,12.44,0,0,1-.76,4.4A8.55,8.55,0,0,1,146.08,71l-.25-.35a7.43,7.43,0,0,0,1.53-2.9,17.66,17.66,0,0,0,.45-4.47,17.66,17.66,0,0,0-.45-4.47A7.54,7.54,0,0,0,145.83,55.91Z" transform="translate(0 -2.18)"/><ellipse class="cls-3" cx="244.75" cy="60.6" rx="27.84" ry="46.37"/><path d="M247.74,2.38a5.6,5.6,0,0,0,.85.16.62.62,0,0,0,.35-.08.59.59,0,0,0,.16-.23h.29L248.88,5l-.24,0a3.24,3.24,0,0,0-.36-1.31,1.86,1.86,0,0,0-1.76-.92,3.58,3.58,0,0,0-3.09,1.88,6.37,6.37,0,0,0-1.07,3.54,3.13,3.13,0,0,0,.65,2.14,2.1,2.1,0,0,0,1.66.73,3.73,3.73,0,0,0,1.92-.51,8.3,8.3,0,0,0,1.35-1.11l.22.19a6,6,0,0,1-1.7,1.51,4.15,4.15,0,0,1-2.09.54,3.27,3.27,0,0,1-2.64-1.08A3.8,3.8,0,0,1,240.81,8a5.77,5.77,0,0,1,1.53-3.85,5.25,5.25,0,0,1,4.1-1.93A5.69,5.69,0,0,1,247.74,2.38Z" transform="translate(0 -2.18)"/><path d="M230.84,59.69a.53.53,0,0,1-.74,0,.45.45,0,0,1-.14-.32,1.45,1.45,0,0,1,.12-.44.21.21,0,0,0-.08-.15.31.31,0,0,0-.17,0c-.32,0-.58.34-.79,1a15,15,0,0,0-.4,2H230l-.09.42h-1.43l-1.21,4.12a8.36,8.36,0,0,1-1,2.64,1.91,1.91,0,0,1-1.65,1,1.13,1.13,0,0,1-.75-.24.71.71,0,0,1-.3-.55.53.53,0,0,1,.13-.35.42.42,0,0,1,.36-.17.5.5,0,0,1,.37.15.48.48,0,0,1,.14.35.53.53,0,0,1-.06.23.33.33,0,0,0-.07.16.12.12,0,0,0,.07.09.36.36,0,0,0,.19,0c.36,0,.66-.28.91-.85a6.41,6.41,0,0,0,.36-1.21l1.5-5.41h-1.17l.09-.42h1.22a8,8,0,0,1,.77-2.17A1.84,1.84,0,0,1,230,58.5a1,1,0,0,1,.71.25.73.73,0,0,1,.29.56A.64.64,0,0,1,230.84,59.69Z" transform="translate(0 -2.18)"/><path d="M237.91,67.6a3.76,3.76,0,0,1,1.15-.85,1.48,1.48,0,0,1-.26-.21.39.39,0,0,1-.1-.29.91.91,0,0,1,.36-.6,5.59,5.59,0,0,1,.65-.49,2,2,0,0,1-.69-.43,1.33,1.33,0,0,1-.35-1,2,2,0,0,1,.74-1.58,2.76,2.76,0,0,1,1.84-.63,2.33,2.33,0,0,1,1,.18,1.15,1.15,0,0,1,.47.3h.85v.51h-.64c0,.09,0,.17,0,.25a2.45,2.45,0,0,1,0,.32,1.89,1.89,0,0,1-.79,1.61,2.82,2.82,0,0,1-1.7.58h-.18l-.2,0c-.07,0-.15.06-.26.18a.53.53,0,0,0-.17.33c0,.14.46.38,1.39.73s1.38.86,1.38,1.53a1.71,1.71,0,0,1-.7,1.33,3.24,3.24,0,0,1-2.09.57,2.54,2.54,0,0,1-1.54-.42,1.21,1.21,0,0,1-.56-1A1.36,1.36,0,0,1,237.91,67.6Zm3.24,1.69a1,1,0,0,0,.49-.86.86.86,0,0,0-.26-.63,1.51,1.51,0,0,0-.44-.3l-.88-.36a3.78,3.78,0,0,0-.71-.24c-.11,0-.32.15-.63.44a1.31,1.31,0,0,0-.48,1,1.15,1.15,0,0,0,.73,1.15,2.31,2.31,0,0,0,.93.17A2.08,2.08,0,0,0,241.15,69.29Zm-1.35-4.64a.76.76,0,0,0,.73.39,1.24,1.24,0,0,0,1-.73,3,3,0,0,0,.44-1.59,1.07,1.07,0,0,0-.18-.65.65.65,0,0,0-.55-.23,1.3,1.3,0,0,0-1.14.74,3,3,0,0,0-.43,1.45A1.34,1.34,0,0,0,239.8,64.65Z" transform="translate(0 -2.18)"/><path d="M250.24,66.48a.56.56,0,0,1,.31-.11l.15,0a.85.85,0,0,1,.17.08l.22.12.08,0h.09a.37.37,0,0,0,.25-.08,5.84,5.84,0,0,0,.43-.55c.16-.21.51-.71,1.06-1.51,0,0-.05-.25-.14-.67s-.19-.78-.27-1.08a2.57,2.57,0,0,0-.21-.59A.4.4,0,0,0,252,62a1.9,1.9,0,0,0-.35.06l-.35.09-.06-.19.7-.24a4.51,4.51,0,0,1,.5-.15,1.55,1.55,0,0,1,.39-.06.48.48,0,0,1,.4.16,2.34,2.34,0,0,1,.34,1l.13.72a10.64,10.64,0,0,1,.89-1.22,2.53,2.53,0,0,1,.53-.48,1,1,0,0,1,.48-.16.73.73,0,0,1,.35.07.41.41,0,0,1,.24.42.45.45,0,0,1-.12.34.43.43,0,0,1-.31.12l-.14,0-.13,0-.16-.07-.13-.06-.1,0c-.19,0-.45.24-.79.73a3.82,3.82,0,0,0-.5.85,5,5,0,0,0,.12.62c.07.34.16.71.25,1.1a5.88,5.88,0,0,0,.22.75c.09.23.2.34.32.34a.48.48,0,0,0,.35-.19,6.89,6.89,0,0,0,.53-.68l.18.11a5.32,5.32,0,0,1-.56.84,1.51,1.51,0,0,1-1.05.65.56.56,0,0,1-.5-.3,2.42,2.42,0,0,1-.21-.58L253.1,65l-1.29,1.7a4.61,4.61,0,0,1-.58.59.85.85,0,0,1-.51.15.58.58,0,0,1-.55-.25.62.62,0,0,1-.08-.31A.39.39,0,0,1,250.24,66.48Z" transform="translate(0 -2.18)"/><path d="M248.56,56A7.62,7.62,0,0,0,247,58.92a17.68,17.68,0,0,0-.45,4.46,17.59,17.59,0,0,0,.45,4.45,7.58,7.58,0,0,0,1.52,2.91l-.25.35a8.39,8.39,0,0,1-2.09-3.31,12.44,12.44,0,0,1-.76-4.4,12.78,12.78,0,0,1,.76-4.42,8.62,8.62,0,0,1,2.09-3.32Z" transform="translate(0 -2.18)"/><path d="M257.71,56l.24-.36a8.72,8.72,0,0,1,2.1,3.33,13.12,13.12,0,0,1,0,8.8,8.61,8.61,0,0,1-2.1,3.32l-.24-.35a7.34,7.34,0,0,0,1.52-2.9,17.11,17.11,0,0,0,.46-4.46,17.28,17.28,0,0,0-.46-4.48A7.41,7.41,0,0,0,257.71,56Z" transform="translate(0 -2.18)"/><path d="M235.83,54.85a9.23,9.23,0,0,0-1.52,3.38,22.71,22.71,0,0,0-.46,5.14,22.65,22.65,0,0,0,.46,5.14,9.21,9.21,0,0,0,1.52,3.36l-.26.4a10.11,10.11,0,0,1-2.09-3.82,17.61,17.61,0,0,1,0-10.17,10.22,10.22,0,0,1,2.09-3.83Z" transform="translate(0 -2.18)"/><path d="M262.21,54.85l.25-.4a10.08,10.08,0,0,1,2.09,3.83,17.39,17.39,0,0,1,0,10.17,10.11,10.11,0,0,1-2.09,3.82l-.25-.4a9.05,9.05,0,0,0,1.53-3.34,23.41,23.41,0,0,0,.45-5.16,23.41,23.41,0,0,0-.45-5.16A9.22,9.22,0,0,0,262.21,54.85Z" transform="translate(0 -2.18)"/><path class="cls-4" d="M60.67,43.4c10.42-13.92,33.12-15,45.27-2.5" transform="translate(0 -2.18)"/><path d="M105.25,40.27l.67-2.12.07,0,1.11,3.12c.52,1,1.05,1.94,1.58,2.9l-2.65-2-3-1.52,0-.07Z" transform="translate(0 -2.18)"/><path d="M64.22,21.72a.36.36,0,0,1,0-.11s0-.07,0-.11-.06-.29-.16-.33a2,2,0,0,0-.6-.06v-.18l.93-.18,1-.19s0,0,0,0a.07.07,0,0,1,0,.07l0,.11L64.27,25a2.07,2.07,0,0,0-.06.24.37.37,0,0,0,0,.13.27.27,0,0,0,.08.22.28.28,0,0,0,.22.09c.25,0,.56-.22.94-.67a11.67,11.67,0,0,0,1-1.37,11.08,11.08,0,0,0,.73-1.42c.13-.32.33-.84.58-1.55h1l-1.24,4.48-.06.23a.62.62,0,0,0,0,.18.32.32,0,0,0,0,.14.15.15,0,0,0,.13.06.4.4,0,0,0,.2-.07l.24-.23a2.44,2.44,0,0,0,.25-.29c.07-.1.19-.24.34-.43l.18.12a5.07,5.07,0,0,1-.6.83,1.7,1.7,0,0,1-1.15.69.64.64,0,0,1-.45-.15.58.58,0,0,1-.18-.47,2.38,2.38,0,0,1,0-.36c0-.13.06-.27.1-.44l.3-1.1L67,23.3h0a17.46,17.46,0,0,1-1.38,2.08,2.33,2.33,0,0,1-1.65,1.05.79.79,0,0,1-.38-.09.66.66,0,0,1-.33-.63,1.41,1.41,0,0,1,0-.22,1.56,1.56,0,0,1,.05-.22Z" transform="translate(0 -2.18)"/><path d="M78.83,22.81h-6V22h6Zm0,1.64h-6v-.81h6Z" transform="translate(0 -2.18)"/><path d="M83.21,26.62a3.76,3.76,0,0,1,1.15-.85,1.48,1.48,0,0,1-.26-.21.39.39,0,0,1-.1-.29.91.91,0,0,1,.36-.6,5.59,5.59,0,0,1,.65-.49,2.18,2.18,0,0,1-.69-.43,1.33,1.33,0,0,1-.35-1,2,2,0,0,1,.74-1.58,2.76,2.76,0,0,1,1.84-.63,2.33,2.33,0,0,1,1,.18,1.23,1.23,0,0,1,.47.3h.85v.51h-.65a1.29,1.29,0,0,1,.06.25,2.33,2.33,0,0,1,0,.32,1.89,1.89,0,0,1-.79,1.61,2.82,2.82,0,0,1-1.71.58H85.6l-.2,0c-.07,0-.15.06-.26.18a.53.53,0,0,0-.17.33c0,.14.46.38,1.38.73s1.38.86,1.38,1.53A1.7,1.7,0,0,1,87,28.38,3.24,3.24,0,0,1,85,29a2.54,2.54,0,0,1-1.54-.42,1.23,1.23,0,0,1-.57-1A1.37,1.37,0,0,1,83.21,26.62Zm3.24,1.69a1,1,0,0,0,.49-.86.86.86,0,0,0-.26-.63,1.45,1.45,0,0,0-.45-.3c-.17-.08-.46-.21-.87-.36a3.78,3.78,0,0,0-.71-.24c-.11,0-.32.15-.63.44a1.31,1.31,0,0,0-.48,1,1.15,1.15,0,0,0,.73,1.15,2.31,2.31,0,0,0,.93.17A2.08,2.08,0,0,0,86.45,28.31ZM85.1,23.67a.76.76,0,0,0,.73.39,1.24,1.24,0,0,0,1-.73,3,3,0,0,0,.44-1.59,1.07,1.07,0,0,0-.18-.65.65.65,0,0,0-.55-.24,1.29,1.29,0,0,0-1.14.75A2.9,2.9,0,0,0,85,23.05,1.34,1.34,0,0,0,85.1,23.67Z" transform="translate(0 -2.18)"/><path d="M95.54,25.5a.56.56,0,0,1,.31-.11l.15,0a.85.85,0,0,1,.17.08l.22.12.08,0h.09a.37.37,0,0,0,.25-.08c0-.05.2-.24.43-.55s.51-.71,1.06-1.51c0,0,0-.25-.14-.67s-.19-.78-.27-1.08a2.57,2.57,0,0,0-.21-.59.42.42,0,0,0-.36-.14l-.34.06-.35.09L96.57,21l.7-.24a3.05,3.05,0,0,1,.5-.15,1.55,1.55,0,0,1,.39-.06.48.48,0,0,1,.4.16,2.49,2.49,0,0,1,.34,1l.13.72a10.88,10.88,0,0,1,.88-1.22,2.27,2.27,0,0,1,.54-.48.88.88,0,0,1,.48-.16.73.73,0,0,1,.35.07.41.41,0,0,1,.24.42.45.45,0,0,1-.12.34.43.43,0,0,1-.31.12l-.14,0a.43.43,0,0,1-.13-.05l-.16-.06-.13-.06-.1,0c-.19,0-.45.24-.79.73a3.82,3.82,0,0,0-.5.85,5,5,0,0,0,.12.62c.07.34.16.71.25,1.09a5.67,5.67,0,0,0,.22.76c.09.23.2.34.32.34a.48.48,0,0,0,.35-.19,6.89,6.89,0,0,0,.53-.68l.18.11a6.11,6.11,0,0,1-.56.84,1.51,1.51,0,0,1-1,.65.56.56,0,0,1-.5-.3,2.42,2.42,0,0,1-.21-.58L98.4,24l-1.29,1.7a4.61,4.61,0,0,1-.58.59.85.85,0,0,1-.51.15.58.58,0,0,1-.55-.25.62.62,0,0,1-.08-.31A.38.38,0,0,1,95.54,25.5Z" transform="translate(0 -2.18)"/><path d="M93.86,15a7.62,7.62,0,0,0-1.52,2.92,17.68,17.68,0,0,0-.45,4.46,17.59,17.59,0,0,0,.45,4.45,7.58,7.58,0,0,0,1.52,2.91l-.25.35a8.51,8.51,0,0,1-2.09-3.31,12.44,12.44,0,0,1-.76-4.4A12.78,12.78,0,0,1,91.52,18a8.62,8.62,0,0,1,2.09-3.32Z" transform="translate(0 -2.18)"/><path d="M103,15l.24-.36a8.61,8.61,0,0,1,2.1,3.33,13.12,13.12,0,0,1,0,8.8,8.49,8.49,0,0,1-2.1,3.32l-.24-.35a7.41,7.41,0,0,0,1.52-2.9A17.11,17.11,0,0,0,105,22.4a17.28,17.28,0,0,0-.46-4.48A7.41,7.41,0,0,0,103,15Z" transform="translate(0 -2.18)"/><path d="M170.34,28a.5.5,0,0,1,.37-.14.64.64,0,0,1,.28.06,1.59,1.59,0,0,1,.25.17l.09.06a.14.14,0,0,0,.08.05l.11,0c.2,0,.53-.27,1-.82a2.44,2.44,0,0,0,.68-1.18,8.34,8.34,0,0,0-.23-1.39c-.16-.68-.31-1.3-.46-1.83a6.49,6.49,0,0,0-.57-1.54.83.83,0,0,0-.75-.4h-.13l-.31,0v-.2l1.72-.34h.13c.11,0,.31.46.61,1.42a16.21,16.21,0,0,1,.5,1.88l.25,1.5c.44-.74.77-1.31,1-1.7a4.39,4.39,0,0,0,.61-1.64.52.52,0,0,0,0-.21.33.33,0,0,0-.17-.18l-.11-.06a.83.83,0,0,1-.24-.18.53.53,0,0,1-.13-.38.44.44,0,0,1,.12-.32.51.51,0,0,1,.38-.14.69.69,0,0,1,.51.19.83.83,0,0,1,.2.63,5.88,5.88,0,0,1-.74,2.17A21.06,21.06,0,0,1,174,25.75a20.11,20.11,0,0,1-1.5,2.06c-.67.76-1.23,1.14-1.67,1.14a.73.73,0,0,1-.45-.16.51.51,0,0,1-.2-.43A.55.55,0,0,1,170.34,28Z" transform="translate(0 -2.18)"/><path d="M185.66,22.81h-6V22h6Zm0,1.64h-6v-.81h6Z" transform="translate(0 -2.18)"/><path d="M196.78,18.71a.53.53,0,0,1-.74,0,.45.45,0,0,1-.14-.32A1.45,1.45,0,0,1,196,18a.18.18,0,0,0-.08-.15.31.31,0,0,0-.17-.05c-.32,0-.58.33-.79,1a15,15,0,0,0-.4,2H196l-.09.42h-1.43l-1.21,4.12a8.36,8.36,0,0,1-1,2.64,1.91,1.91,0,0,1-1.65,1,1.14,1.14,0,0,1-.75-.24.71.71,0,0,1-.3-.55.53.53,0,0,1,.13-.35.42.42,0,0,1,.36-.17.5.5,0,0,1,.37.15.45.45,0,0,1,.14.35.53.53,0,0,1-.06.23.33.33,0,0,0-.07.16.12.12,0,0,0,.07.09.38.38,0,0,0,.19,0c.36,0,.66-.28.91-.85a6.41,6.41,0,0,0,.36-1.21l1.5-5.41h-1.17l.09-.42h1.22a8,8,0,0,1,.77-2.17,1.84,1.84,0,0,1,1.58-1.09,1,1,0,0,1,.71.25.73.73,0,0,1,.29.56A.64.64,0,0,1,196.78,18.71Z" transform="translate(0 -2.18)"/><path d="M204.42,21.72a.36.36,0,0,1,0-.11s0-.07,0-.11-.06-.29-.16-.33a2,2,0,0,0-.6-.06v-.18l.93-.18,1-.19s0,0,.05,0a.07.07,0,0,1,0,.07l0,.11L204.47,25a2.07,2.07,0,0,0-.06.24.37.37,0,0,0,0,.13.27.27,0,0,0,.08.22.28.28,0,0,0,.22.09c.25,0,.56-.22.94-.67a11.67,11.67,0,0,0,1-1.37,11.08,11.08,0,0,0,.73-1.42c.13-.32.33-.84.58-1.55h1l-1.24,4.48-.06.23a.62.62,0,0,0,0,.18.32.32,0,0,0,0,.14.15.15,0,0,0,.13.06.4.4,0,0,0,.2-.07l.24-.23a2.44,2.44,0,0,0,.25-.29c.07-.1.19-.24.34-.43l.18.12a5.07,5.07,0,0,1-.6.83,1.7,1.7,0,0,1-1.15.69.64.64,0,0,1-.45-.15.58.58,0,0,1-.18-.47,2.38,2.38,0,0,1,0-.36c0-.13.06-.27.1-.44l.3-1.1.17-.59h0a17.46,17.46,0,0,1-1.38,2.08,2.33,2.33,0,0,1-1.65,1.05.79.79,0,0,1-.38-.09.66.66,0,0,1-.33-.63,1.41,1.41,0,0,1,0-.22,1.56,1.56,0,0,1,.05-.22Z" transform="translate(0 -2.18)"/><path d="M201.77,15a7.49,7.49,0,0,0-1.52,2.92,17.17,17.17,0,0,0-.46,4.46,17.08,17.08,0,0,0,.46,4.45,7.45,7.45,0,0,0,1.52,2.91l-.26.35a8.51,8.51,0,0,1-2.09-3.31,13.34,13.34,0,0,1,0-8.82,8.74,8.74,0,0,1,2.09-3.32Z" transform="translate(0 -2.18)"/><path d="M210.91,15l.25-.36A8.59,8.59,0,0,1,213.25,18a13.12,13.12,0,0,1,0,8.8,8.47,8.47,0,0,1-2.09,3.32l-.25-.35a7.3,7.3,0,0,0,1.53-2.9,17.63,17.63,0,0,0,.45-4.46,17.8,17.8,0,0,0-.45-4.48A7.3,7.3,0,0,0,210.91,15Z" transform="translate(0 -2.18)"/><path class="cls-4" d="M168.4,43.4c10.43-13.92,33.13-15,45.28-2.5" transform="translate(0 -2.18)"/><path d="M213,40.27l.67-2.12.08,0,1.1,3.12,1.59,2.9-2.66-2-2.95-1.52,0-.07Z" transform="translate(0 -2.18)"/><path class="cls-4" d="M58.56,99.23c36,30.23,116.56,31.1,154.7,1.09" transform="translate(0 -2.18)"/><path d="M212.51,100.9l-2.09-.73,0-.07,3.16-1,2.94-1.51-2,2.6-1.6,2.91-.07,0Z" transform="translate(0 -2.18)"/><path d="M133,130a.49.49,0,0,1-.41.19.5.5,0,0,1-.38-.15.45.45,0,0,1-.15-.34,1.45,1.45,0,0,1,.13-.47.19.19,0,0,0-.09-.16.31.31,0,0,0-.19-.06c-.34,0-.62.36-.85,1.1a17.24,17.24,0,0,0-.44,2.13h1.52l-.09.46h-1.55l-1.3,4.44a9.41,9.41,0,0,1-1.11,2.85,2.08,2.08,0,0,1-1.78,1.09,1.2,1.2,0,0,1-.81-.27.74.74,0,0,1-.32-.59.6.6,0,0,1,.13-.38.46.46,0,0,1,.4-.18.53.53,0,0,1,.39.16.5.5,0,0,1,.09.62.44.44,0,0,0-.07.17.12.12,0,0,0,.07.11.6.6,0,0,0,.21,0c.38,0,.71-.31,1-.91a7.15,7.15,0,0,0,.39-1.32l1.61-5.83h-1.26l.1-.46h1.32a8.17,8.17,0,0,1,.83-2.35,2,2,0,0,1,1.7-1.17,1.11,1.11,0,0,1,.77.27.76.76,0,0,1,.31.6A.65.65,0,0,1,133,130Z" transform="translate(0 -2.18)"/><path d="M140,135.29a2.32,2.32,0,0,1-.45.67,2.12,2.12,0,0,1-.66.44,2.13,2.13,0,0,1-1.62,0,1.91,1.91,0,0,1-.66-.44,2.32,2.32,0,0,1-.45-.67,2,2,0,0,1-.17-.8,2,2,0,0,1,.61-1.47,2,2,0,0,1,.67-.46,2.13,2.13,0,0,1,1.62,0,2,2,0,0,1,.66.46,2.15,2.15,0,0,1,.45.66,2,2,0,0,1,0,1.61Zm-.51-1.39a1.54,1.54,0,0,0-.34-.49,1.47,1.47,0,0,0-.48-.33,1.38,1.38,0,0,0-.6-.13,1.28,1.28,0,0,0-.59.13,1.37,1.37,0,0,0-.48.33,1.51,1.51,0,0,0-.33.49,1.48,1.48,0,0,0-.12.59,1.45,1.45,0,0,0,.12.59,1.58,1.58,0,0,0,.33.48,1.47,1.47,0,0,0,.48.33,1.73,1.73,0,0,0,.6.11,1.67,1.67,0,0,0,.59-.11,1.47,1.47,0,0,0,.48-.33,1.61,1.61,0,0,0,.34-.48,1.45,1.45,0,0,0,.12-.59A1.48,1.48,0,0,0,139.44,133.9Z" transform="translate(0 -2.18)"/><path d="M143.44,138.49a4.27,4.27,0,0,1,1.24-.91,1.32,1.32,0,0,1-.28-.23.46.46,0,0,1-.11-.32,1,1,0,0,1,.39-.64,6.12,6.12,0,0,1,.71-.53,2.22,2.22,0,0,1-.75-.47,1.4,1.4,0,0,1-.38-1,2.15,2.15,0,0,1,.8-1.7,3,3,0,0,1,2-.69,2.47,2.47,0,0,1,1,.2,1.32,1.32,0,0,1,.51.32h.92V133h-.7a1.94,1.94,0,0,1,.08.62,2,2,0,0,1-.85,1.73,3,3,0,0,1-1.84.63H146l-.22,0c-.07,0-.16.06-.28.19a.56.56,0,0,0-.18.36c0,.15.5.41,1.5.79s1.49.92,1.49,1.65a1.82,1.82,0,0,1-.75,1.43,3.5,3.5,0,0,1-2.26.62,2.75,2.75,0,0,1-1.66-.45,1.33,1.33,0,0,1-.61-1.1A1.49,1.49,0,0,1,143.44,138.49Zm3.49,1.83a1.13,1.13,0,0,0,.54-.93.9.9,0,0,0-.28-.68,1.88,1.88,0,0,0-.48-.32c-.19-.09-.5-.22-1-.39a4.5,4.5,0,0,0-.76-.26c-.12,0-.35.16-.69.47a1.45,1.45,0,0,0-.51,1.08,1.24,1.24,0,0,0,.78,1.24,2.53,2.53,0,0,0,1,.18A2.19,2.19,0,0,0,146.93,140.32Zm-1.45-5a.81.81,0,0,0,.78.42,1.34,1.34,0,0,0,1.1-.78,3.21,3.21,0,0,0,.48-1.72,1.12,1.12,0,0,0-.2-.7.7.7,0,0,0-.59-.26,1.39,1.39,0,0,0-1.23.81,3.14,3.14,0,0,0-.47,1.56A1.56,1.56,0,0,0,145.48,135.31Z" transform="translate(0 -2.18)"/></g></svg>